<svg id="Annotator" xmlns="http://www.w3.org/2000/svg" width="100%" height="100%" viewBox="0 0 34 34">
  <rect id="Rectangle_3258" data-name="Rectangle 3258" width="34" height="34" rx="5" fill="#06d0b2" opacity="0"/>
  <path id="Annotation_Icon" data-name="Annotation Icon" d="M7.576,22.814a1.667,1.667,0,0,1-1.665-1.666v-3.26a16.174,16.174,0,0,0,1.785.1c.512,0,1.031-.025,1.545-.073v3.235A1.667,1.667,0,0,1,7.576,22.814Zm.179-8.307A7.526,7.526,0,0,1,0,7.253,7.525,7.525,0,0,1,7.755,0a7.526,7.526,0,0,1,7.756,7.253A7.526,7.526,0,0,1,7.755,14.507Z" transform="translate(9.243 5.593)" fill="none" stroke="#fff" stroke-width="1.8" opacity="0.8"/>
</svg>
