<svg id="Data" xmlns="http://www.w3.org/2000/svg" width="34" height="34" viewBox="0 0 34 34">
  <rect id="Rectangle_3259" data-name="Rectangle 3259" width="34" height="34" rx="5" fill="#06d0b2" opacity="0"/>
  <g id="Icon_feather-youtube" data-name="Icon feather-youtube" transform="translate(4.634 3.364)" opacity="0.8">
    <path id="Path_4017" data-name="Path 4017" d="M22.778,8.391a2.746,2.746,0,0,0-1.916-1.976C19.163,6,12.366,6,12.366,6s-6.8,0-8.5.454A2.746,2.746,0,0,0,1.954,8.43,28.648,28.648,0,0,0,1.5,13.656a28.648,28.648,0,0,0,.454,5.265,2.746,2.746,0,0,0,1.916,1.9c1.7.454,8.5.454,8.5.454s6.8,0,8.5-.454a2.746,2.746,0,0,0,1.916-1.976,28.648,28.648,0,0,0,.454-5.186,28.648,28.648,0,0,0-.454-5.265Z" transform="translate(0)" fill="none" stroke="#fff" stroke-linecap="round" stroke-linejoin="round" stroke-width="2"/>
    <path id="Path_4018" data-name="Path 4018" d="M14.625,19.181l5.68-3.23-5.68-3.23Z" transform="translate(-4.482 -2.294)" fill="none" stroke="#fff" stroke-linecap="round" stroke-linejoin="round" stroke-width="1.6"/>
  </g>
</svg>
